<?xml version="1.0" standalone="no"?>
<!DOCTYPE svg PUBLIC "-//W3C//DTD SVG 20010904//EN"
 "http://www.w3.org/TR/2001/REC-SVG-20010904/DTD/svg10.dtd">
<svg version="1.0" xmlns="http://www.w3.org/2000/svg"
 width="523.000000pt" height="521.000000pt" viewBox="0 0 523.000000 521.000000"
 preserveAspectRatio="xMidYMid meet">

<g transform="translate(0.000000,521.000000) scale(0.100000,-0.100000)"
fill="#000000" stroke="none">
<path d="M1210 4260 l0 -320 85 0 85 0 0 229 c0 199 2 230 16 235 20 8 3068 8
3088 0 15 -6 16 -151 16 -1550 l0 -1544 -37 -1 c-49 -1 -3066 -1 -3075 0 -5 1
-8 105 -8 231 l0 230 -85 0 -85 0 0 -320 0 -320 1728 2 1727 3 0 1720 0 1720
-1727 3 -1728 2 0 -320z"/>
<path d="M915 3823 c-4 -10 -20 -54 -36 -98 -15 -44 -46 -129 -69 -190 -23
-60 -54 -146 -70 -190 -15 -44 -51 -141 -80 -215 -28 -74 -64 -171 -80 -215
-15 -44 -35 -98 -43 -120 -9 -22 -39 -103 -67 -180 -83 -227 -208 -564 -240
-647 -17 -42 -30 -82 -30 -87 0 -7 53 -11 153 -11 l152 0 49 143 c27 78 65
186 84 240 l36 97 409 -2 409 -3 19 -50 c18 -46 64 -174 126 -352 l25 -73 154
0 c85 0 154 2 154 4 0 2 -15 44 -33 92 -37 98 -70 189 -147 399 -27 77 -61
169 -75 205 -14 36 -47 128 -75 205 -28 77 -62 169 -75 205 -37 98 -210 570
-256 695 -22 61 -45 122 -51 138 l-10 27 -163 0 c-146 0 -164 -2 -170 -17z
m201 -414 c12 -35 42 -120 67 -189 24 -69 74 -208 110 -310 36 -102 77 -215
91 -251 14 -37 22 -69 19 -73 -11 -10 -643 -7 -643 4 0 5 12 40 26 77 14 38
36 100 49 138 13 39 45 129 70 200 65 178 122 338 148 413 11 34 26 61 31 59
5 -2 20 -32 32 -68z"/>
<path d="M2260 2855 l0 -985 150 0 150 0 0 373 1 372 102 109 102 108 114
-183 c63 -101 151 -242 196 -314 45 -71 118 -188 163 -260 44 -71 92 -147 106
-167 l26 -38 175 0 176 0 -12 23 c-12 21 -80 129 -253 400 -18 28 -87 138
-153 242 -65 105 -165 262 -221 351 -56 88 -102 164 -102 168 0 5 51 63 112
130 143 153 380 408 472 506 38 41 86 92 105 113 l35 37 -180 0 -181 0 -173
-187 c-95 -104 -270 -293 -389 -421 l-216 -233 -3 420 -2 421 -150 0 -150 0 0
-985z"/>
</g>
</svg>
