<?xml version="1.0" encoding="UTF-8" standalone="no"?><svg xmlns="http://www.w3.org/2000/svg" xmlns:xlink="http://www.w3.org/1999/xlink" fill="#000000" height="279.2" preserveAspectRatio="xMidYMid meet" version="1" viewBox="0.0 0.0 322.4 279.2" width="322.4" zoomAndPan="magnify"><defs><clipPath id="a"><path d="M 0 186 L 108 186 L 108 279.199219 L 0 279.199219 Z M 0 186"/></clipPath><clipPath id="b"><path d="M 53 93 L 215 93 L 215 279.199219 L 53 279.199219 Z M 53 93"/></clipPath><clipPath id="c"><path d="M 161 93 L 322.398438 93 L 322.398438 279.199219 L 161 279.199219 Z M 161 93"/></clipPath></defs><g><g id="change1_1"><path d="M 188.101562 0 L 134.300781 0 L 107.5 46.5 L 134.300781 93.101562 L 188.101562 93.101562 L 214.898438 46.5 L 188.101562 0" fill="#ffffff"/></g><g clip-path="url(#a)" id="change2_1"><path d="M 80.601562 186.101562 L 26.902344 186.101562 L 0 232.699219 L 26.902344 279.199219 L 80.601562 279.199219 L 107.5 232.699219 L 80.601562 186.101562" fill="#86c7ed"/></g><g clip-path="url(#b)" id="change3_1"><path d="M 197.992188 203.304688 L 198 203.300781 L 196.1875 200.164062 L 188.101562 186.101562 L 188.0625 186.101562 L 151.898438 123.5 L 151.890625 123.507812 L 134.300781 93.101562 L 80.601562 93.101562 L 53.699219 139.601562 L 71.804688 170.898438 L 71.800781 170.898438 L 116.117188 247.65625 L 134.300781 279.199219 L 188.101562 279.199219 L 214.898438 232.699219 L 197.992188 203.304688" fill="#86c7ed"/></g><g clip-path="url(#c)" id="change4_1"><path d="M 304.125 201.042969 L 304.199219 201 L 258.199219 121.199219 L 258.09375 121.265625 L 241.800781 93.101562 L 188.101562 93.101562 L 161.199219 139.601562 L 188.101562 186.101562 L 188.117188 186.101562 L 214.980469 232.5625 L 214.898438 232.699219 L 241.800781 279.199219 L 295.5 279.199219 L 322.398438 232.699219 L 304.125 201.042969" fill="#ffffff"/></g></g></svg>